<?xml version="1.0" encoding="UTF-8"?>
<svg xmlns="http://www.w3.org/2000/svg" version="1.1" viewBox="0 0 512 512">
  <!-- Generator: Adobe Illustrator 29.8.4, SVG Export Plug-In . SVG Version: 2.1.1 Build 6)  -->
  <defs>
    <style>
      .st0 {
        fill: #3c4b84;
      }

      .st1 {
        fill: #fff;
      }

      .st2 {
        display: none;
      }
    </style>
  </defs>
  <g id="_レイヤー_1" data-name="レイヤー_1">
    <rect class="st0" x="0" width="512" height="512" rx="10" ry="10"/>
  </g>
  <g id="_レイヤー_4" data-name="レイヤー_4" class="st2">
    <g>
      <path d="M260.32,383.2h-62.4l-17.92-43.2c-6.72-15.68-11.84-28.8-17.28-43.84h-.96c-4.48,15.04-9.28,28.8-15.04,44.16l-16,42.88h-60.48l59.52-125.76-57.28-121.6h62.08l16.96,43.2c5.76,14.4,9.92,26.88,14.72,40.64h.96c4.8-15.36,8.32-26.88,13.12-40.96l15.68-42.88h60.8l-58.88,121.92,62.4,125.44Z"/>
      <path d="M440.48,328.16c0,19.84.64,40.64,1.28,55.04h-49.28l-2.56-23.36h-.96c-9.6,16.96-28.16,26.88-47.36,26.88-41.28,0-68.16-39.68-68.16-92.8,0-61.12,33.28-94.4,70.72-94.4,19.2,0,32.96,7.68,39.04,18.56h.96v-92.8h56.32v202.88ZM384.16,276.64c0-24.96-14.72-32.32-24.32-32.32-20.48,0-29.76,22.4-29.76,49.6,0,31.04,12.16,47.36,29.44,47.36,10.56,0,24.64-6.72,24.64-31.36v-33.28Z"/>
    </g>
  </g>
  <g id="_レイヤー_5" data-name="レイヤー_5">
    <g>
      <path class="st1" d="M268.16,378.08h-58.24l-14.4-57.6h-56.96l-13.44,57.6h-56.96l65.28-247.37h71.36l63.36,247.37ZM188.8,277.92l-10.88-49.6c-3.2-14.72-7.36-36.8-10.56-51.84h-.64c-3.2,15.04-7.36,37.76-10.24,51.84l-11.2,49.6h43.52Z"/>
      <path class="st1" d="M434.88,371.36c-16.64,6.72-38.08,9.92-59.52,9.92-56.64,0-88.64-33.92-88.64-90.24,0-51.52,30.08-96.64,83.84-96.64,42.88,0,73.28,28.8,73.28,89.92,0,8.64-.32,17.6-1.6,23.68h-101.76c1.28,21.44,20.48,31.36,43.84,31.36,16.32,0,30.4-2.88,43.2-7.04l7.36,39.04ZM392.32,269.28c0-16-5.12-36.16-24.64-36.16s-26.56,21.12-27.52,36.16h52.16Z"/>
    </g>
  </g>
  <g id="_レイヤー_3" data-name="レイヤー_3" class="st2">
    <g>
      <path d="M101.6,135.04c16-2.88,38.4-5.12,66.56-5.12,32.64,0,56.64,5.44,73.28,19.52,15.68,12.8,24.96,33.92,24.96,56.96,0,68.8-56,84.8-94.72,84.8-5.44,0-10.24-.32-14.08-.64v88.32h-56v-243.85ZM157.6,246.4c3.52.32,7.04.64,12.8.64,26.24,0,40.32-15.68,40.32-38.08s-13.76-35.2-36.16-35.2c-7.68,0-13.76.96-16.96,1.92v70.72Z"/>
      <path d="M393.76,244.16c-7.68-4.16-20.48-8.96-33.28-8.96s-18.88,5.44-18.88,13.44c0,7.36,5.44,11.84,25.28,20.16,31.36,13.12,43.2,31.68,43.52,54.72,0,37.12-28.16,58.56-73.6,58.56-20.16,0-40.32-4.8-51.84-11.84l9.6-40.32c8.96,5.44,27.52,11.84,41.92,11.84s20.8-4.8,20.8-13.44-5.12-13.12-23.36-20.48c-34.56-14.4-45.12-34.56-45.12-53.12,0-33.92,26.88-59.52,69.12-59.52,18.56,0,34.56,4.48,45.44,9.6l-9.6,39.36Z"/>
    </g>
  </g>
  <g id="_レイヤー_2" data-name="レイヤー_2" class="st2">
    <g>
      <path d="M314.24,384.8h-58.24l-14.4-57.6h-56.96l-13.44,57.6h-56.96l65.28-247.37h71.36l63.36,247.37ZM234.88,284.64l-10.88-49.6c-3.2-14.72-7.36-36.8-10.56-51.84h-.64c-3.2,15.04-7.36,37.76-10.24,51.84l-11.2,49.6h43.52Z"/>
      <path d="M368.96,184.48c-16.96,0-28.8-12.16-28.8-28.48s12.16-28.8,28.8-28.8,28.8,11.84,28.8,28.8-12.48,28.48-28.8,28.48ZM397.12,384.8h-56.32v-180.16h56.32v180.16Z"/>
    </g>
  </g>
</svg>