<?xml version="1.0" encoding="UTF-8"?>
<svg id="_x32_" xmlns="http://www.w3.org/2000/svg" version="1.1" viewBox="0 0 512 512">
  <!-- Generator: Adobe Illustrator 30.1.0, SVG Export Plug-In . SVG Version: 2.1.1 Build 136)  -->
  <defs>
    <style>
      .st0 {
        fill: #1f8aac;
      }
    </style>
  </defs>
  <path class="st0" d="M378.41,0h-183.3l-9.31,9.31L57.02,138.1l-9.31,9.31v278.69c0,47.36,38.53,85.9,85.9,85.9h244.81c47.35,0,85.88-38.54,85.88-85.89V85.9c0-47.37-38.53-85.9-85.88-85.9ZM432.5,426.11c0,29.88-24.21,54.09-54.08,54.09h-244.81c-29.88,0-54.1-24.21-54.1-54.09V160.59h83.72c24.88,0,45.08-20.18,45.08-45.07V31.8h170.12c29.87,0,54.08,24.21,54.08,54.09v340.21Z"/>
  <path class="st0" d="M169.57,268.95c5.84,0,9.1,2.17,12.5,6.79,2.71,3.8,5.43,5.17,8.82,5.17,5.03,0,9.1-3.67,9.1-8.96,0-2.17-.68-4.08-1.77-5.98-4.62-8.29-14.8-14.67-28.65-14.67-16.17,0-28.12,7.6-33.01,22.68-1.9,6.11-2.57,10.86-2.57,24.99s.67,18.88,2.57,24.99c4.89,15.08,16.84,22.68,33.01,22.68,13.85,0,24.03-6.38,28.65-14.67,1.09-1.9,1.77-3.8,1.77-5.98,0-5.3-4.08-8.96-9.1-8.96-3.39,0-6.12,1.36-8.82,5.16-3.39,4.62-6.66,6.79-12.5,6.79-7.47,0-11.81-3.94-13.85-10.19-1.09-3.39-1.49-6.65-1.49-19.83s.41-16.44,1.49-19.83c2.04-6.25,6.38-10.19,13.85-10.19Z"/>
  <path class="st0" d="M255.15,289.6l-4.89-.68c-10.73-1.49-14.4-5.02-14.4-10.19,0-5.84,4.34-9.92,12.5-9.92,5.7,0,11.41,1.63,15.89,3.8,1.9.95,3.94,1.49,5.84,1.49,4.89,0,8.7-3.67,8.7-8.69,0-3.26-1.49-5.98-4.76-8.02-5.43-3.39-15.61-6.11-25.81-6.11-19.97,0-32.73,11.27-32.73,28.25s10.32,25.13,29.2,27.71l4.9.68c10.99,1.49,14.26,4.89,14.26,10.32,0,6.39-5.31,10.87-15.08,10.87-6.79,0-12.22-1.77-19.83-5.98-1.63-.96-3.67-1.63-5.84-1.63-5.17,0-8.96,3.94-8.96,8.83,0,3.25,1.63,6.38,4.75,8.42,6.12,3.8,16.03,7.88,29.07,7.88,24.03,0,36.27-12.36,36.27-29.07,0-16.71-9.92-25.26-29.07-27.98Z"/>
  <path class="st0" d="M338.7,289.6l-4.89-.68c-10.74-1.49-14.4-5.02-14.4-10.19,0-5.84,4.34-9.92,12.48-9.92,5.71,0,11.42,1.63,15.89,3.8,1.91.95,3.95,1.49,5.85,1.49,4.89,0,8.69-3.67,8.69-8.69,0-3.26-1.49-5.98-4.75-8.02-5.43-3.39-15.63-6.11-25.81-6.11-19.97,0-32.73,11.27-32.73,28.25s10.32,25.13,29.2,27.71l4.89.68c11,1.49,14.26,4.89,14.26,10.32,0,6.39-5.29,10.87-15.07,10.87-6.8,0-12.23-1.77-19.83-5.98-1.63-.96-3.67-1.63-5.85-1.63-5.15,0-8.96,3.94-8.96,8.83,0,3.25,1.63,6.38,4.76,8.42,6.12,3.8,16.03,7.88,29.06,7.88,24.05,0,36.27-12.36,36.27-29.07s-9.92-25.26-29.06-27.98Z"/>
</svg>