<?xml version="1.0" encoding="UTF-8"?>
<svg xmlns="http://www.w3.org/2000/svg" viewBox="0 0 512 512">
  <defs>
    <style>
      .cls-1 {
        fill-rule: evenodd;
      }

      .cls-2 {
        fill: #fff;
      }
    </style>
  </defs>
  <g id="_レイヤー_2" data-name="レイヤー 2">
    <rect class="cls-2" x="0" width="512" height="512" rx="10" ry="10"/>
  </g>
  <g id="_レイヤー_1" data-name="レイヤー 1">
    <path class="cls-1" d="M152.37,194.02c-20.24-13.19-33.62-36.02-33.62-61.98,0-40.83,33.1-73.92,73.92-73.92h126.65c40.83,0,73.92,33.1,73.92,73.92,0,25.96-13.38,48.79-33.62,61.98,20.24,13.19,33.62,36.02,33.62,61.98,0,40.83-33.1,73.92-73.92,73.92h-1.35c-19.3,0-36.87-7.4-50.04-19.51v68.87c0,41.28-33.82,74.6-74.94,74.6s-74.26-33.01-74.26-73.92c0-25.96,13.38-48.79,33.62-61.98-20.24-13.19-33.62-36.02-33.62-61.98s13.38-48.79,33.62-61.98ZM267.94,256c0,27.63,22.4,50.04,50.04,50.04h1.35c27.63,0,50.04-22.4,50.04-50.04s-22.4-50.04-50.04-50.04h-1.35c-27.63,0-50.04,22.4-50.04,50.04ZM244.06,205.96h-51.38c-27.63,0-50.04,22.4-50.04,50.04s22.31,49.94,49.87,50.04h51.55v-100.07ZM192.67,329.92h-.17c-27.56.09-49.87,22.46-49.87,50.04s22.65,50.04,50.37,50.04,51.05-22.79,51.05-50.71v-49.36h-51.38ZM244.06,182.08h-51.38c-27.63,0-50.04-22.4-50.04-50.04s22.4-50.04,50.04-50.04h51.38v100.07ZM319.33,182.08h-51.38v-100.07h51.38c27.63,0,50.04,22.4,50.04,50.04s-22.4,50.04-50.04,50.04Z"/>
  </g>
</svg>