<?xml version="1.0" encoding="UTF-8"?>
<svg id="_x32_" xmlns="http://www.w3.org/2000/svg" version="1.1" viewBox="0 0 512 512">
  <!-- Generator: Adobe Illustrator 30.1.0, SVG Export Plug-In . SVG Version: 2.1.1 Build 136)  -->
  <defs>
    <style>
      .st0 {
        fill: #e67e51;
      }
    </style>
  </defs>
  <path class="st0" d="M378.41,0h-183.3l-9.31,9.31L57.02,138.1l-9.31,9.31v278.69c0,47.36,38.53,85.9,85.9,85.9h244.81c47.35,0,85.88-38.54,85.88-85.89V85.9c0-47.37-38.53-85.9-85.88-85.9ZM432.5,426.11c0,29.88-24.21,54.09-54.08,54.09h-244.81c-29.88,0-54.1-24.21-54.1-54.09V160.59h83.72c24.88,0,45.08-20.18,45.08-45.07V31.8h170.12c29.87,0,54.08,24.21,54.08,54.09v340.21Z"/>
  <path class="st0" d="M163.16,253.19c-5.1,0-8.87,3.65-8.87,9.48v23.45c0,.49-.25.73-.73.73h-26.99c-.47,0-.73-.24-.73-.73v-23.45c0-5.83-3.77-9.48-8.87-9.48s-8.99,3.65-8.99,9.48v65.14c0,5.83,3.64,9.48,8.87,9.48s8.99-3.64,8.99-9.48v-24.3c0-.49.25-.73.73-.73h26.99c.48,0,.73.24.73.73v24.3c0,5.83,3.77,9.48,8.87,9.48s8.99-3.64,8.99-9.48v-65.14c0-5.83-3.77-9.48-8.99-9.48Z"/>
  <path class="st0" d="M235.25,253.92h-47.28c-5.46,0-8.99,3.28-8.99,8.02s3.53,7.9,8.99,7.9h13.98c.49,0,.73.24.73.73v57.25c0,5.71,3.77,9.48,8.88,9.48s8.99-3.76,8.99-9.48v-57.25c0-.48.24-.73.73-.73h13.98c5.46,0,8.99-3.28,8.99-7.9,0-4.74-3.53-8.02-8.99-8.02Z"/>
  <path class="st0" d="M318.25,253.19c-5.35,0-8.27,2.92-10.93,9.24l-17.26,39.86h-.49l-17.62-39.86c-2.79-6.32-5.71-9.24-11.06-9.24-5.95,0-9.85,4.13-9.85,10.7v64.78c0,5.47,3.41,8.62,8.27,8.62s8.03-3.16,8.03-8.62v-39.87h.6l12.89,29.65c2.54,5.84,4.61,7.54,8.74,7.54s6.2-1.7,8.76-7.54l12.76-29.65h.6v39.87c0,5.47,3.28,8.62,8.14,8.62s8.16-3.16,8.16-8.62v-64.78c0-6.56-3.77-10.7-9.74-10.7Z"/>
  <path class="st0" d="M389.36,320.64h-29.41c-.49,0-.73-.24-.73-.73v-57.24c0-5.71-3.77-9.48-8.87-9.48s-8.99,3.77-8.99,9.48v64.9c0,5.35,3.52,8.99,8.99,8.99h39c5.48,0,8.99-3.28,8.99-8.02,0-4.62-3.52-7.9-8.99-7.9Z"/>
</svg>