<?xml version="1.0" encoding="UTF-8"?>
<svg id="_レイヤー_1" xmlns="http://www.w3.org/2000/svg" version="1.1" viewBox="0 0 512 512">
  <!-- Generator: Adobe Illustrator 30.1.0, SVG Export Plug-In . SVG Version: 2.1.1 Build 136)  -->
  <defs>
    <style>
      .st0 {
        fill: #fff;
      }

      .st1 {
        fill: #1f8aac;
      }

      .st2 {
        display: none;
      }
    </style>
  </defs>
  <g id="_レイヤー_11">
    <rect class="st1" x=".5" y=".5" width="511" height="511" rx="9.5" ry="9.5"/>
  </g>
  <g id="_レイヤー_3">
    <g>
      <path class="st0" d="M101.6,135.04c16-2.88,38.4-5.12,66.56-5.12,32.64,0,56.64,5.44,73.28,19.52,15.68,12.8,24.96,33.92,24.96,56.96,0,68.8-56,84.8-94.72,84.8-5.44,0-10.24-.32-14.08-.64v88.32h-56v-243.85h0ZM157.6,246.4c3.52.32,7.04.64,12.8.64,26.24,0,40.32-15.68,40.32-38.08s-13.76-35.2-36.16-35.2c-7.68,0-13.76.96-16.96,1.92v70.72Z"/>
      <path class="st0" d="M393.76,244.16c-7.68-4.16-20.48-8.96-33.28-8.96s-18.88,5.44-18.88,13.44c0,7.36,5.44,11.84,25.28,20.16,31.36,13.12,43.2,31.68,43.52,54.72,0,37.12-28.16,58.56-73.6,58.56-20.16,0-40.32-4.8-51.84-11.84l9.6-40.32c8.96,5.44,27.52,11.84,41.92,11.84s20.8-4.8,20.8-13.44-5.12-13.12-23.36-20.48c-34.56-14.4-45.12-34.56-45.12-53.12,0-33.92,26.88-59.52,69.12-59.52,18.56,0,34.56,4.48,45.44,9.6l-9.6,39.36h0Z"/>
    </g>
  </g>
  <g id="_レイヤー_2" class="st2">
    <g>
      <path d="M314.24,384.8h-58.24l-14.4-57.6h-56.96l-13.44,57.6h-56.96l65.28-247.37h71.36l63.36,247.37ZM234.88,284.64l-10.88-49.6c-3.2-14.72-7.36-36.8-10.56-51.84h-.64c-3.2,15.04-7.36,37.76-10.24,51.84l-11.2,49.6h43.52Z"/>
      <path d="M368.96,184.48c-16.96,0-28.8-12.16-28.8-28.48s12.16-28.8,28.8-28.8,28.8,11.84,28.8,28.8-12.48,28.48-28.8,28.48ZM397.12,384.8h-56.32v-180.16h56.32v180.16Z"/>
    </g>
  </g>
</svg>